<?xml version="1.0" encoding="UTF-8" standalone="no"?>
<!-- Generator: Adobe Illustrator 15.1.0, SVG Export Plug-In . SVG Version: 6.00 Build 0)  -->

<svg
   xmlns:dc="http://purl.org/dc/elements/1.1/"
   xmlns:cc="http://creativecommons.org/ns#"
   xmlns:rdf="http://www.w3.org/1999/02/22-rdf-syntax-ns#"
   xmlns:svg="http://www.w3.org/2000/svg"
   xmlns="http://www.w3.org/2000/svg"
   xmlns:sodipodi="http://sodipodi.sourceforge.net/DTD/sodipodi-0.dtd"
   xmlns:inkscape="http://www.inkscape.org/namespaces/inkscape"
   version="1.1"
   id="Layer_1"
   x="0px"
   y="0px"
   width="512px"
   height="512px"
   viewBox="0 0 512 512"
   enable-background="new 0 0 512 512"
   xml:space="preserve"
   inkscape:version="0.48.3.1 r9886"
   sodipodi:docname="cold.svg"
   inkscape:export-filename="/home/woursler/simmons-tech/dashboard/icons/weather/cold.png"
   inkscape:export-xdpi="45"
   inkscape:export-ydpi="45"><metadata
   id="metadata76"><rdf:RDF><cc:Work
       rdf:about=""><dc:format>image/svg+xml</dc:format><dc:type
         rdf:resource="http://purl.org/dc/dcmitype/StillImage" /><dc:title /></cc:Work></rdf:RDF></metadata><defs
   id="defs74" /><sodipodi:namedview
   pagecolor="#ffffff"
   bordercolor="#666666"
   borderopacity="1"
   objecttolerance="10"
   gridtolerance="10"
   guidetolerance="10"
   inkscape:pageopacity="0"
   inkscape:pageshadow="2"
   inkscape:window-width="1024"
   inkscape:window-height="544"
   id="namedview72"
   showgrid="false"
   inkscape:zoom="0.4609375"
   inkscape:cx="-2.1694915"
   inkscape:cy="256"
   inkscape:window-x="0"
   inkscape:window-y="27"
   inkscape:window-maximized="1"
   inkscape:current-layer="Layer_1" />

<path
   d="M 438.38102,308.10937 391.48259,281.0355 c 1.49787,-8.14488 2.51562,-16.47088 2.51562,-25.0355 0,-8.59481 -1.01775,-16.951 -2.576,-25.09587 L 438.32065,203.8015 C 460.36184,191.04369 467.84977,162.92187 455.18109,141 442.45346,118.989 414.39202,111.44213 392.37959,124.10938 l -47.34838,27.34268 C 332.36396,140.67081 317.92859,132.16512 301.99534,126.50569 V 72 c 0,-25.396312 -20.5735,-46 -46,-46 -25.39488,0 -46,20.603688 -46,46 v 54.4755 c -15.93182,5.66087 -30.36719,14.16656 -43.03444,24.94637 l -47.25925,-27.28231 c -22.011,-12.69743 -50.163,-5.18075 -62.88919,16.83025 -12.66869,21.98225 -5.12037,50.10263 16.88919,62.8015 l 46.80931,27.04369 c -1.52662,8.1765 -2.51706,16.56144 -2.51706,25.18644 0,8.56462 0.989,16.92081 2.51706,25.06712 l -46.8395,27.04225 c -22.04262,12.69888 -29.5895,40.87963 -16.86044,62.89063 12.66582,21.92187 40.81782,29.46875 62.86044,16.8015 l 47.19744,-27.28231 c 12.66869,10.78125 27.13281,19.34587 43.125,25.03693 V 440 c 0,25.4265 20.60512,46 46,46 25.4265,0 46,-20.5735 46,-46 v -54.50569 c 15.99219,-5.68962 30.45775,-14.19531 43.06462,-25.00531 l 47.31819,27.31106 c 22.011,12.66725 50.13425,5.12038 62.8015,-16.8015 12.73194,-22.00956 5.21525,-50.13137 -16.79719,-62.88919 z M 209.99821,256 c 0,-25.39631 20.5735,-46 46,-46 25.39631,0 46,20.60369 46,46 0,25.39488 -20.60369,46 -46,46 -25.42506,0 -46,-20.60512 -46,-46 z"
   id="path70"
   inkscape:connector-curvature="0"
   style="fill:#1d1d1b" />
</svg>