<?xml version="1.0" encoding="UTF-8" standalone="no"?>
<svg
   xmlns:dc="http://purl.org/dc/elements/1.1/"
   xmlns:cc="http://creativecommons.org/ns#"
   xmlns:rdf="http://www.w3.org/1999/02/22-rdf-syntax-ns#"
   xmlns:svg="http://www.w3.org/2000/svg"
   xmlns="http://www.w3.org/2000/svg"
   xmlns:sodipodi="http://sodipodi.sourceforge.net/DTD/sodipodi-0.dtd"
   xmlns:inkscape="http://www.inkscape.org/namespaces/inkscape"
   version="1.1"
   height="256"
   width="256"
   id="svg3293"
   inkscape:version="0.48.3.1 r9886"
   sodipodi:docname="MIT_logo.svg">
  <metadata
     id="metadata3305">
    <rdf:RDF>
      <cc:Work
         rdf:about="">
        <dc:format>image/svg+xml</dc:format>
        <dc:type
           rdf:resource="http://purl.org/dc/dcmitype/StillImage" />
      </cc:Work>
    </rdf:RDF>
  </metadata>
  <defs
     id="defs3303" />
  <sodipodi:namedview
     pagecolor="#ffffff"
     bordercolor="#666666"
     borderopacity="1"
     objecttolerance="10"
     gridtolerance="10"
     guidetolerance="10"
     inkscape:pageopacity="0"
     inkscape:pageshadow="2"
     inkscape:window-width="1024"
     inkscape:window-height="576"
     id="namedview3301"
     showgrid="false"
     inkscape:zoom="0.78"
     inkscape:cx="74.952725"
     inkscape:cy="208.67166"
     inkscape:window-x="0"
     inkscape:window-y="24"
     inkscape:window-maximized="1"
     inkscape:current-layer="svg3293" />
  <g
     id="g3021">
    <path
       inkscape:connector-curvature="0"
       id="rect4089"
       d="m 0,90.144092 0,132.386288 27.912773,0 0,-132.386288 -27.912773,0 z m 45.457944,0 0,90.118378 27.912773,0 0,-90.118378 -27.912773,0 z m 45.457944,0 0,132.386288 27.912772,0 0,-132.386288 -27.912772,0 z m 45.457942,0 0,26.317748 27.91277,0 0,-26.317748 -27.91277,0 z m 46.25545,0 0,26.317748 73.37072,0 0,-26.317748 -73.37072,0 z m -46.25545,42.267908 0,90.11838 27.91277,0 0,-90.11838 -27.91277,0 z m 46.25545,0 0,90.11838 27.91278,0 0,-90.11838 -27.91278,0 z"
       style="fill:#000000;fill-opacity:1;stroke:none" />
    <g
       id="g3011">
      <path
         inkscape:connector-curvature="0"
         id="path2987"
         style="font-size:40px;font-style:normal;font-weight:bold;line-height:125%;letter-spacing:0px;word-spacing:0px;fill:#000000;fill-opacity:1;stroke:none;font-family:Sans;-inkscape-font-specification:Sans Bold"
         d="m 1.6582529,34.094637 21.6141731,0 0,6.736343 -13.6050718,0 0,6.435406 12.7937598,0 0,6.736343 -12.7937598,0 0,7.916939 14.0627348,0 0,6.736341 -22.0718361,0 0,-34.561372" />
      <path
         inkscape:connector-curvature="0"
         id="path2989"
         style="font-size:40px;font-style:normal;font-weight:bold;line-height:125%;letter-spacing:0px;word-spacing:0px;fill:#000000;fill-opacity:1;stroke:none;font-family:Sans;-inkscape-font-specification:Sans Bold"
         d="m 27.079349,34.094637 8.050708,0 8.237933,25.510136 8.21713,-25.510136 8.050708,0 -11.503983,34.561372 -9.548513,0 -11.503983,-34.561372" />
      <path
         inkscape:connector-curvature="0"
         id="path2991"
         style="font-size:40px;font-style:normal;font-weight:bold;line-height:125%;letter-spacing:0px;word-spacing:0px;fill:#000000;fill-opacity:1;stroke:none;font-family:Sans;-inkscape-font-specification:Sans Bold"
         d="m 63.733991,34.094637 21.614173,0 0,6.736343 -13.605072,0 0,6.435406 12.79376,0 0,6.736343 -12.79376,0 0,7.916939 14.062735,0 0,6.736341 -22.071836,0 0,-34.561372" />
      <path
         inkscape:connector-curvature="0"
         id="path2993"
         style="font-size:40px;font-style:normal;font-weight:bold;line-height:125%;letter-spacing:0px;word-spacing:0px;fill:#000000;fill-opacity:1;stroke:none;font-family:Sans;-inkscape-font-specification:Sans Bold"
         d="m 92.857997,34.094637 8.945233,0 11.29595,23.704518 0,-23.704518 7.59304,0 0,34.561372 -8.94522,0 -11.29596,-23.704518 0,23.704518 -7.593043,0 0,-34.561372" />
      <path
         inkscape:connector-curvature="0"
         id="path2995"
         style="font-size:40px;font-style:normal;font-weight:bold;line-height:125%;letter-spacing:0px;word-spacing:0px;fill:#000000;fill-opacity:1;stroke:none;font-family:Sans;-inkscape-font-specification:Sans Bold"
         d="m 124.8528,34.094637 28.62474,0 0,6.736343 -10.29742,0 0,27.825029 -8.0091,0 0,-27.825029 -10.31822,0 0,-6.736343" />
      <path
         inkscape:connector-curvature="0"
         id="path2997"
         style="font-size:40px;font-style:normal;font-weight:bold;line-height:125%;letter-spacing:0px;word-spacing:0px;fill:#000000;fill-opacity:1;stroke:none;font-family:Sans;-inkscape-font-specification:Sans Bold"
         d="m 179.21067,35.182638 0,7.315066 c -1.70585,-0.848768 -3.37008,-1.489221 -4.99269,-1.921363 -1.62263,-0.432084 -3.15511,-0.648142 -4.59742,-0.64817 -1.91388,2.8e-5 -3.32847,0.293249 -4.24379,0.87966 -0.91533,0.586467 -1.373,1.496992 -1.37299,2.731575 -1e-5,0.925983 0.3051,1.651315 0.91532,2.176001 0.62408,0.509299 1.74744,0.949128 3.37007,1.31949 l 3.41167,0.763915 c 3.45326,0.771652 5.908,1.94453 7.36421,3.518639 1.45618,1.574144 2.18428,3.811873 2.18431,6.713194 -3e-5,3.811866 -1.01937,6.651467 -3.05803,8.518811 -2.02483,1.851916 -5.12445,2.777872 -9.29888,2.777874 -1.96935,-2e-6 -3.94561,-0.208342 -5.92881,-0.625022 -1.98322,-0.416681 -3.96642,-1.033985 -5.94962,-1.851916 l 0,-7.523406 c 1.9832,1.172888 3.89707,2.060263 5.7416,2.662128 1.85837,0.586446 3.64741,0.879666 5.36713,0.87966 1.74743,6e-6 3.08574,-0.324079 4.01495,-0.972256 0.92918,-0.648162 1.39377,-1.57412 1.39379,-2.777873 -2e-5,-1.080273 -0.319,-1.913634 -0.95693,-2.500086 -0.6241,-0.586427 -1.8792,-1.111135 -3.76532,-1.574128 l -3.09963,-0.763915 c -3.10656,-0.740751 -5.38101,-1.921346 -6.82333,-3.541788 -1.42847,-1.620407 -2.1427,-3.804121 -2.1427,-6.551151 0,-3.441448 0.99854,-6.088142 2.99561,-7.940088 1.99708,-1.851881 4.86787,-2.777838 8.61239,-2.777874 1.70582,3.6e-5 3.46019,0.146646 5.26313,0.439831 1.80289,0.277821 3.66821,0.702219 5.59596,1.273192" />
      <path
         inkscape:connector-curvature="0"
         id="path2999"
         style="font-size:40px;font-style:normal;font-weight:bold;line-height:125%;letter-spacing:0px;word-spacing:0px;fill:#000000;fill-opacity:1;stroke:none;font-family:Sans;-inkscape-font-specification:Sans Bold"
         d="m 221.96055,62.359497 -12.52332,0 -1.97627,6.296512 -8.0507,0 11.50398,-34.561372 9.54851,0 11.50398,34.561372 -8.05071,0 -1.95547,-6.296512 m -10.52624,-6.412257 8.50837,0 -4.24378,-13.750472 -4.26459,13.750472" />
      <path
         inkscape:connector-curvature="0"
         id="path3001"
         style="font-size:40px;font-style:normal;font-weight:bold;line-height:125%;letter-spacing:0px;word-spacing:0px;fill:#000000;fill-opacity:1;stroke:none;font-family:Sans;-inkscape-font-specification:Sans Bold"
         d="m 229.03353,34.094637 28.62474,0 0,6.736343 -10.29742,0 0,27.825029 -8.0091,0 0,-27.825029 -10.31822,0 0,-6.736343" />
    </g>
  </g>
</svg>
