<?xml version="1.0" encoding="UTF-8" standalone="no"?>
<!-- Created with Inkscape (http://www.inkscape.org/) -->

<svg
   xmlns:dc="http://purl.org/dc/elements/1.1/"
   xmlns:cc="http://creativecommons.org/ns#"
   xmlns:rdf="http://www.w3.org/1999/02/22-rdf-syntax-ns#"
   xmlns:svg="http://www.w3.org/2000/svg"
   xmlns="http://www.w3.org/2000/svg"
   xmlns:sodipodi="http://sodipodi.sourceforge.net/DTD/sodipodi-0.dtd"
   xmlns:inkscape="http://www.inkscape.org/namespaces/inkscape"
   width="256"
   height="256"
   id="svg3309"
   version="1.1"
   inkscape:version="0.48.3.1 r9886"
   sodipodi:docname="BBC.svg">
  <defs
     id="defs3311">
    <clipPath
       id="clipPath3015"
       clipPathUnits="userSpaceOnUse">
      <path
         inkscape:connector-curvature="0"
         id="path3017"
         d="m 28.346,28.346 71.765,0 0,54.047 -71.765,0 0,-54.047 z" />
    </clipPath>
  </defs>
  <sodipodi:namedview
     id="base"
     pagecolor="#ffffff"
     bordercolor="#666666"
     borderopacity="1.0"
     inkscape:pageopacity="0.0"
     inkscape:pageshadow="2"
     inkscape:zoom="0.56839371"
     inkscape:cx="-33.274751"
     inkscape:cy="112.79144"
     inkscape:document-units="px"
     inkscape:current-layer="layer1"
     showgrid="false"
     fit-margin-top="0"
     fit-margin-left="0"
     fit-margin-right="0"
     fit-margin-bottom="0"
     inkscape:window-width="1024"
     inkscape:window-height="576"
     inkscape:window-x="0"
     inkscape:window-y="24"
     inkscape:window-maximized="1" />
  <metadata
     id="metadata3314">
    <rdf:RDF>
      <cc:Work
         rdf:about="">
        <dc:format>image/svg+xml</dc:format>
        <dc:type
           rdf:resource="http://purl.org/dc/dcmitype/StillImage" />
        <dc:title />
      </cc:Work>
    </rdf:RDF>
  </metadata>
  <g
     inkscape:label="Layer 1"
     inkscape:groupmode="layer"
     id="layer1"
     transform="translate(-69.432589,-124.42727)">
    <g
       id="g4340"
       transform="translate(0,-61.179142)">
      <g
         transform="matrix(5.6437389,0,0,5.6437389,-448.38801,-1586.1373)"
         id="g4327">
        <path
           id="path3019"
           style="fill:#000000;fill-opacity:1;fill-rule:nonzero;stroke:none"
           d="m 123.38384,324.77102 13.7275,0 0,12.9175 -13.7275,0 0,-12.9175 z m 8.64875,1.7975 c -0.06,-0.01 -0.12125,-0.02 -0.185,-0.03 l -0.075,-0.01 c -0.105,-0.015 -0.21125,-0.0263 -0.3175,-0.0375 -0.075,-0.006 -0.1475,-0.0113 -0.21875,-0.0163 -0.13125,-0.007 -0.26,-0.0112 -0.3825,-0.0112 -0.0575,0 -0.0888,10e-4 -0.145,0.002 -0.1025,10e-4 -0.2025,0.006 -0.305,0.0112 -0.055,0.004 -0.11125,0.01 -0.16625,0.0138 -0.0813,0.007 -0.16125,0.0163 -0.2425,0.0275 l -0.065,0.009 -0.075,0.01 -0.09,0.0138 c -0.04,0.007 -0.0787,0.0138 -0.11875,0.0213 -0.055,0.01 -0.10625,0.02 -0.16,0.0325 -0.32625,0.0688 -0.6275,0.16 -0.905,0.26875 -0.14375,0.055 -0.28125,0.115 -0.41125,0.18 -0.11125,0.0538 -0.21625,0.1075 -0.31625,0.1675 -0.0975,0.0562 -0.19125,0.1125 -0.28125,0.17375 -0.0525,0.0337 -0.10375,0.0688 -0.15375,0.105 -0.0425,0.0312 -0.085,0.0625 -0.125,0.0925 -0.0875,0.0688 -0.17125,0.13625 -0.25125,0.20625 -0.0725,0.065 -0.145,0.13125 -0.21125,0.1975 -0.0575,0.0563 -0.115,0.115 -0.16875,0.17625 -0.055,0.0612 -0.11,0.12375 -0.1625,0.18875 -0.055,0.07 -0.1125,0.1425 -0.16625,0.21625 -0.04,0.0562 -0.0775,0.1125 -0.115,0.17 -0.0263,0.0375 -0.0512,0.0775 -0.0775,0.1175 -0.14125,0.23375 -0.26625,0.485 -0.37,0.75125 -0.12875,0.33375 -0.22125,0.6925 -0.2725,1.07375 -0.015,0.12 -0.0288,0.2425 -0.035,0.36625 -0.006,0.0962 -0.01,0.1925 -0.01,0.29125 0,0.0738 0.001,0.14625 0.005,0.2175 0.005,0.075 0.0113,0.15 0.02,0.2225 l 0.005,0.0525 c 0.0113,0.0863 0.025,0.1725 0.0413,0.2575 0.007,0.0337 0.0125,0.0663 0.02,0.0987 0.0162,0.0713 0.0312,0.14 0.0512,0.21 0.0238,0.0875 0.0487,0.175 0.0775,0.26 0.0362,0.10625 0.0738,0.2075 0.11375,0.3075 0.0675,0.1575 0.14,0.31 0.2175,0.4525 0.0475,0.0838 0.0937,0.16625 0.14375,0.24375 0.0387,0.0625 0.0775,0.12375 0.11875,0.1825 0.0538,0.0775 0.11,0.15125 0.16375,0.2225 0.0575,0.075 0.11875,0.14625 0.17625,0.2125 0.0738,0.085 0.1475,0.16125 0.21875,0.2325 l 0.0387,0.0375 c 0.0588,0.0562 0.1225,0.11875 0.19625,0.18 0.0512,0.0425 0.10125,0.0875 0.15875,0.1325 0.0512,0.0412 0.1075,0.0838 0.165,0.12625 0.0687,0.0488 0.1425,0.0987 0.22,0.15 0.0812,0.0525 0.16875,0.105 0.26,0.155 0.18125,0.10125 0.38125,0.2 0.60125,0.28875 0.0813,0.0325 0.16625,0.0638 0.25625,0.0937 0.0863,0.03 0.175,0.0575 0.26875,0.085 0.1575,0.045 0.3225,0.085 0.4975,0.11875 0.14125,0.0275 0.2875,0.05 0.43875,0.0688 0.15,0.0175 0.30375,0.0312 0.465,0.04 0.08,0.004 0.15875,0.006 0.24,0.009 0.0362,0 0.075,0 0.11125,0 0.28875,0 0.55625,-0.01 0.80375,-0.0312 l 0.0475,-0.004 c 0.0987,-0.009 0.19375,-0.0187 0.28625,-0.0312 0.14125,-0.0162 0.2775,-0.0375 0.40375,-0.0612 0.0825,-0.0138 0.16,-0.03 0.23625,-0.0462 0.1175,-0.025 0.23125,-0.0525 0.3375,-0.0813 0.08,-0.02 0.15625,-0.0425 0.22875,-0.0663 0.0888,-0.0263 0.17375,-0.0537 0.255,-0.0813 l 0.0775,-0.0275 c 0.0388,-0.0138 0.0913,-0.0337 0.155,-0.0575 0.0825,-0.0325 0.1825,-0.0713 0.29625,-0.12 0.0675,-0.0288 0.14125,-0.0612 0.21625,-0.0962 0.0675,-0.03 0.13625,-0.065 0.2075,-0.1 0.03,-0.0138 0.0588,-0.0288 0.09,-0.0438 l 0,-1.76125 c -0.0187,0.0137 -0.0412,0.0263 -0.0613,0.0387 l -0.1225,0.0737 c -0.12,0.0725 -0.23625,0.14125 -0.3525,0.20375 -0.1275,0.07 -0.2525,0.13375 -0.3775,0.1925 -0.2175,0.1025 -0.42625,0.18875 -0.6275,0.26125 -0.38375,0.13875 -0.7375,0.22625 -1.04875,0.28 -0.0362,0.006 -0.0725,0.0125 -0.10875,0.0175 -0.085,0.0137 -0.1675,0.025 -0.24625,0.0325 -0.12375,0.0138 -0.23625,0.0213 -0.34,0.025 -0.0662,0.004 -0.13,0.005 -0.18625,0.005 -0.12625,0 -0.255,-0.004 -0.385,-0.0125 -0.15375,-0.0125 -0.30875,-0.0288 -0.4675,-0.0538 -0.255,-0.0437 -0.51125,-0.10875 -0.76,-0.2 -0.0363,-0.0125 -0.075,-0.0275 -0.10875,-0.0412 -0.0263,-0.01 -0.05,-0.02 -0.0737,-0.03 -0.0413,-0.0175 -0.0825,-0.035 -0.1225,-0.0537 -0.0875,-0.04 -0.1725,-0.085 -0.255,-0.1325 -0.0413,-0.0238 -0.0825,-0.0475 -0.12375,-0.0738 -0.0425,-0.0263 -0.085,-0.0537 -0.125,-0.0825 -0.0525,-0.0362 -0.1025,-0.0725 -0.1525,-0.11125 -0.0475,-0.0388 -0.0962,-0.0788 -0.13875,-0.11375 l -0.0575,-0.0525 -0.0288,-0.0275 -0.0175,-0.015 -0.0213,-0.0225 c -0.0787,-0.0775 -0.15125,-0.1575 -0.2175,-0.23625 -0.0375,-0.045 -0.0713,-0.09 -0.105,-0.135 -0.0325,-0.0425 -0.0625,-0.0875 -0.0913,-0.13 -0.0262,-0.0412 -0.0512,-0.0825 -0.0762,-0.125 -0.0363,-0.0613 -0.0688,-0.12375 -0.1,-0.185 -0.0263,-0.0525 -0.0512,-0.105 -0.0725,-0.1575 -0.0375,-0.0888 -0.07,-0.17875 -0.0962,-0.26375 -0.0225,-0.0663 -0.04,-0.13125 -0.055,-0.195 -0.0487,-0.18375 -0.0713,-0.3525 -0.085,-0.495 -0.004,-0.055 -0.007,-0.10625 -0.01,-0.1525 -0.005,-0.0712 -0.005,-0.1325 -0.005,-0.18125 0,-0.0325 0,-0.0688 10e-4,-0.11125 0.005,-0.10125 0.0125,-0.22875 0.035,-0.37375 0.0125,-0.0888 0.03,-0.1825 0.0525,-0.2825 0.0175,-0.065 0.035,-0.1325 0.0563,-0.20125 0.02,-0.0625 0.0425,-0.125 0.0662,-0.19 0.0175,-0.045 0.035,-0.0875 0.055,-0.13125 0.025,-0.06 0.0538,-0.11875 0.085,-0.18 0.0225,-0.045 0.0487,-0.09 0.075,-0.13625 0.0587,-0.1 0.1225,-0.2 0.19875,-0.29875 0.0263,-0.0362 0.0538,-0.0712 0.0838,-0.10625 0.0362,-0.045 0.075,-0.0913 0.1175,-0.135 0.02,-0.0225 0.0413,-0.045 0.0638,-0.0675 0.32125,-0.3225 0.685,-0.56375 1.06125,-0.735 0.0575,-0.0275 0.1175,-0.0512 0.1775,-0.0738 0.0588,-0.025 0.1175,-0.045 0.17875,-0.0662 0.0637,-0.0213 0.13125,-0.0412 0.19625,-0.06 0.0613,-0.0175 0.12375,-0.0325 0.18625,-0.0475 0.0613,-0.0138 0.125,-0.0263 0.18625,-0.0387 0.0675,-0.0113 0.13625,-0.0225 0.2025,-0.0312 0.0687,-0.009 0.1375,-0.0163 0.2025,-0.0213 0.12875,-0.0113 0.255,-0.0163 0.37875,-0.0163 0.04,0 0.08,-10e-4 0.12125,0 0.0913,0.002 0.18125,0.005 0.2675,0.0113 0.0625,0.004 0.12,0.007 0.1775,0.0138 0.1125,0.01 0.21875,0.0225 0.31875,0.04 0.0925,0.0125 0.17875,0.0288 0.2625,0.0438 0.12625,0.0263 0.2425,0.055 0.345,0.0812 0.0675,0.0175 0.13,0.0363 0.185,0.0525 0.0863,0.025 0.16,0.0475 0.21625,0.0675 0.0975,0.035 0.15125,0.0538 0.15125,0.0538 0.0863,0.0312 0.17125,0.065 0.255,0.0975 0.1125,0.045 0.21875,0.095 0.32125,0.14125 0.085,0.0375 0.16625,0.0775 0.2425,0.11625 0.0625,0.03 0.12125,0.06 0.17625,0.0888 0.0962,0.05 0.1775,0.095 0.245,0.13125 l 0.17875,0.0975 0,-1.73 c 0,0 -0.1075,-0.0437 -0.29375,-0.115 -0.0825,-0.03 -0.18,-0.0675 -0.29,-0.10625 -0.0625,-0.0225 -0.12625,-0.045 -0.195,-0.07 -0.055,-0.0175 -0.11125,-0.0375 -0.17,-0.0563 -0.0662,-0.0213 -0.135,-0.0437 -0.205,-0.065 -0.05,-0.015 -0.1025,-0.0312 -0.15625,-0.0462 l -0.0462,-0.0138 c -0.0513,-0.0137 -0.10375,-0.0288 -0.15625,-0.0425 -0.0637,-0.0175 -0.1275,-0.0337 -0.1925,-0.05 -0.0413,-0.01 -0.0813,-0.02 -0.125,-0.03 -0.0675,-0.015 -0.13625,-0.0312 -0.20625,-0.045 -0.0712,-0.015 -0.145,-0.0275 -0.2175,-0.0413"
           inkscape:connector-curvature="0" />
        <g
           transform="matrix(1.25,0,0,-1.25,112.83521,331.89453)"
           id="g3021"
           style="fill:#000000">
          <path
             id="path3023"
             style="fill:#000000;fill-opacity:1;fill-rule:nonzero;stroke:none"
             d="m 0,0 0,-2.031 1.319,0 c 0,0 0.026,0.001 0.069,0.002 0.045,10e-4 0.108,0.004 0.183,0.011 0.144,0.013 0.332,0.039 0.515,0.101 0.166,0.056 0.327,0.139 0.449,0.263 0.048,0.047 0.088,0.096 0.119,0.146 0.104,0.163 0.13,0.329 0.134,0.423 0.005,0.04 0.004,0.064 0.004,0.064 0,0 0.001,0.018 0,0.05 -10e-4,0.039 -0.006,0.115 -0.027,0.197 -0.025,0.096 -0.071,0.208 -0.154,0.31 -0.016,0.019 -0.033,0.038 -0.05,0.057 -0.037,0.036 -0.076,0.071 -0.12,0.103 -0.071,0.053 -0.154,0.099 -0.244,0.137 -0.118,0.052 -0.25,0.09 -0.396,0.117 -0.075,0.014 -0.154,0.026 -0.235,0.034 -0.049,0.004 -0.1,0.008 -0.152,0.01 -0.045,0.003 -0.093,0.005 -0.14,0.005 C 0.807,-0.001 0,0 0,0"
             inkscape:connector-curvature="0" />
        </g>
        <g
           transform="matrix(1.25,0,0,-1.25,112.83521,328.03552)"
           id="g3025"
           style="fill:#000000">
          <path
             id="path3027"
             style="fill:#000000;fill-opacity:1;fill-rule:nonzero;stroke:none"
             d="m 0,0 0,-1.925 0.639,0 c 0,0 0.042,0 0.098,0.001 0.045,0.003 0.097,0.005 0.144,0.007 0.132,0.01 0.313,0.028 0.494,0.079 0.036,0.01 0.072,0.021 0.107,0.034 0.143,0.05 0.279,0.124 0.385,0.229 0.085,0.083 0.14,0.176 0.177,0.265 0.045,0.111 0.062,0.216 0.068,0.29 0.005,0.067 0.005,0.11 0.005,0.11 0,0 10e-4,0.032 -10e-4,0.082 -0.004,0.083 -0.021,0.22 -0.088,0.351 -0.032,0.063 -0.075,0.123 -0.135,0.182 -0.072,0.071 -0.159,0.125 -0.252,0.166 -0.18,0.08 -0.386,0.112 -0.56,0.123 C 1.007,-0.001 0.938,0 0.879,0 L 0,0 z"
             inkscape:connector-curvature="0" />
        </g>
        <path
           id="path3029"
           style="fill:#000000;fill-opacity:1;fill-rule:nonzero;stroke:none"
           d="m 107.56759,324.77102 13.7275,0 0,12.9175 -13.7275,0 0,-12.9175 z m 3.6025,1.81125 0,9.30375 3.50125,0 c 0,0 1.7075,0.0475 2.65125,-0.89625 0.76625,-0.76625 0.7125,-1.655 0.7125,-1.655 0,0 0.0538,-0.9275 -0.65625,-1.6375 -0.605,-0.60625 -1.3775,-0.7675 -1.3775,-0.7675 0,0 0.3475,-0.16375 0.61625,-0.43125 0.12625,-0.12625 0.57375,-0.53 0.57375,-1.51 0,-0.9875 -0.6575,-1.555 -0.6575,-1.555 0,0 -0.72,-0.85125 -2.345,-0.85125 l -3.01875,0 z"
           inkscape:connector-curvature="0" />
        <g
           transform="matrix(1.25,0,0,-1.25,97.018583,331.89453)"
           id="g3031"
           style="fill:#000000">
          <path
             id="path3033"
             style="fill:#000000;fill-opacity:1;fill-rule:nonzero;stroke:none"
             d="m 0,0 0,-2.031 1.318,0 c 0,0 0.027,0.001 0.07,0.002 0.045,10e-4 0.107,0.004 0.183,0.011 0.144,0.013 0.332,0.039 0.515,0.101 0.166,0.056 0.326,0.139 0.45,0.263 0.047,0.047 0.086,0.096 0.118,0.146 0.104,0.163 0.129,0.329 0.135,0.423 0.003,0.04 0.003,0.064 0.003,0.064 0,0 0,0.018 0,0.05 C 2.79,-0.932 2.785,-0.856 2.765,-0.774 2.741,-0.678 2.694,-0.566 2.611,-0.464 2.596,-0.445 2.579,-0.426 2.559,-0.407 2.523,-0.371 2.485,-0.336 2.442,-0.304 2.369,-0.251 2.286,-0.205 2.198,-0.167 2.079,-0.115 1.945,-0.077 1.8,-0.05 1.726,-0.036 1.646,-0.024 1.566,-0.016 1.516,-0.012 1.465,-0.008 1.414,-0.006 1.369,-0.003 1.321,-0.001 1.275,-0.001 0.806,-0.001 0,0 0,0"
             inkscape:connector-curvature="0" />
        </g>
        <g
           transform="matrix(1.25,0,0,-1.25,97.018583,328.03552)"
           id="g3035"
           style="fill:#000000">
          <path
             id="path3037"
             style="fill:#000000;fill-opacity:1;fill-rule:nonzero;stroke:none"
             d="m 0,0 0,-1.925 0.638,0 c 0,0 0.043,0 0.099,0.001 0.045,0.003 0.097,0.005 0.144,0.007 0.131,0.01 0.313,0.028 0.495,0.079 0.035,0.01 0.071,0.021 0.105,0.034 0.143,0.05 0.28,0.124 0.386,0.229 0.084,0.083 0.14,0.176 0.178,0.265 0.044,0.111 0.06,0.216 0.067,0.29 0.006,0.067 0.005,0.11 0.005,0.11 0,0 0.002,0.032 -10e-4,0.082 -0.004,0.083 -0.022,0.22 -0.088,0.351 -0.032,0.063 -0.076,0.123 -0.135,0.182 -0.072,0.071 -0.159,0.125 -0.252,0.166 -0.18,0.08 -0.386,0.112 -0.559,0.123 C 1.007,-0.001 0.937,0 0.88,0 L 0,0 z"
             inkscape:connector-curvature="0" />
        </g>
        <path
           id="path3039"
           style="fill:#000000;fill-opacity:1;fill-rule:nonzero;stroke:none"
           d="m 91.751339,324.77102 13.727501,0 0,12.9175 -13.727501,0 0,-12.9175 z m 3.60125,1.81125 0,9.30375 3.50125,0 c 0,0 1.708751,0.0475 2.651251,-0.89625 0.7675,-0.76625 0.7125,-1.655 0.7125,-1.655 0,0 0.055,-0.9275 -0.655,-1.6375 -0.60625,-0.60625 -1.38,-0.7675 -1.38,-0.7675 0,0 0.35,-0.16375 0.61875,-0.43125 0.125,-0.12625 0.5725,-0.53 0.5725,-1.51 0,-0.9875 -0.6575,-1.555 -0.6575,-1.555 0,0 -0.720001,-0.85125 -2.345001,-0.85125 l -3.01875,0 z"
           inkscape:connector-curvature="0" />
      </g>
      <g
         transform="matrix(4.166998,0,0,4.166998,-279.40334,-1093.4452)"
         style="fill:#000000"
         id="g4315">
        <g
           style="fill:#000000"
           transform="matrix(1.25,0,0,-1.25,96.668965,353.65077)"
           id="g3041">
          <path
             id="path3043"
             style="fill:#000000;fill-opacity:1;fill-rule:nonzero;stroke:none"
             d="M 0,0 -0.258,0 -3.296,7.569 -6.362,0 -6.62,0 l -3.744,9.333 1.33,0 2.55,-6.376 2.564,6.376 1.261,0 2.578,-6.376 2.523,6.376 1.316,0 L 0,0 z"
             inkscape:connector-curvature="0" />
        </g>
        <g
           style="fill:#000000"
           transform="matrix(1.25,0,0,-1.25,107.67685,352.17502)"
           id="g3045">
          <path
             id="path3047"
             style="fill:#000000;fill-opacity:1;fill-rule:nonzero;stroke:none"
             d="M 0,0 C 2.075,0 3.608,1.505 3.608,3.527 3.608,5.561 2.075,7.053 0,7.053 -2.062,7.053 -3.595,5.561 -3.595,3.527 -3.595,1.505 -2.062,0 0,0 m 0,8.274 c 3.052,0 4.978,-2.17 4.978,-4.747 0,-2.497 -1.872,-4.748 -5.005,-4.748 -3.025,0 -4.938,2.238 -4.938,4.748 0,2.563 1.967,4.747 4.965,4.747"
             inkscape:connector-curvature="0" />
        </g>
        <g
           style="fill:#000000"
           transform="matrix(1.25,0,0,-1.25,117.62996,347.03777)"
           id="g3049">
          <path
             id="path3051"
             style="fill:#000000;fill-opacity:1;fill-rule:nonzero;stroke:none"
             d="M 0,0 0.855,0 C 2.279,0 2.686,0.732 2.673,1.506 2.659,2.374 2.143,2.903 0.855,2.903 L 0,2.903 0,0 z m 1.004,4.042 c 1.872,0 3.039,-0.99 3.039,-2.591 0,-1.071 -0.557,-1.872 -1.547,-2.265 0.841,-0.556 1.356,-1.411 2.062,-2.564 0.393,-0.637 0.624,-0.949 1.262,-1.831 l -1.588,0 -1.221,1.899 c -1.22,1.899 -1.776,2.116 -2.455,2.116 l -0.556,0 0,-4.015 -1.329,0 0,9.251 2.333,0 z"
             inkscape:connector-curvature="0" />
        </g>
        <g
           style="fill:#000000"
           transform="matrix(1.25,0,0,-1.25,127.82097,352.05677)"
           id="g3053">
          <path
             id="path3055"
             style="fill:#000000;fill-opacity:1;fill-rule:nonzero;stroke:none"
             d="m 0,0 4.178,0 0,-1.194 -5.508,0 0,9.252 1.33,0 L 0,0 z"
             inkscape:connector-curvature="0" />
        </g>
        <g
           style="fill:#000000"
           transform="matrix(1.25,0,0,-1.25,136.16283,352.05677)"
           id="g3057">
          <path
             id="path3059"
             style="fill:#000000;fill-opacity:1;fill-rule:nonzero;stroke:none"
             d="m 0,0 2.116,0 c 3.011,0 3.703,2.292 3.703,3.432 0,1.858 -1.18,3.432 -3.771,3.432 L 0,6.864 0,0 z m -1.33,8.058 3.595,0 c 3.419,0 4.924,-2.442 4.924,-4.626 0,-2.374 -1.858,-4.626 -4.91,-4.626 l -3.609,0 0,9.252 z"
             inkscape:connector-curvature="0" />
        </g>
      </g>
    </g>
  </g>
</svg>
