<?xml version="1.0" encoding="UTF-8" standalone="no"?>
<!-- Generator: Adobe Illustrator 15.1.0, SVG Export Plug-In . SVG Version: 6.00 Build 0)  -->

<svg
   xmlns:dc="http://purl.org/dc/elements/1.1/"
   xmlns:cc="http://creativecommons.org/ns#"
   xmlns:rdf="http://www.w3.org/1999/02/22-rdf-syntax-ns#"
   xmlns:svg="http://www.w3.org/2000/svg"
   xmlns="http://www.w3.org/2000/svg"
   xmlns:sodipodi="http://sodipodi.sourceforge.net/DTD/sodipodi-0.dtd"
   xmlns:inkscape="http://www.inkscape.org/namespaces/inkscape"
   version="1.1"
   id="Layer_1"
   x="0px"
   y="0px"
   width="512px"
   height="512px"
   viewBox="0 0 512 512"
   enable-background="new 0 0 512 512"
   xml:space="preserve"
   inkscape:version="0.48.3.1 r9886"
   sodipodi:docname="clear_night.svg"><metadata
   id="metadata76"><rdf:RDF><cc:Work
       rdf:about=""><dc:format>image/svg+xml</dc:format><dc:type
         rdf:resource="http://purl.org/dc/dcmitype/StillImage" /><dc:title /></cc:Work></rdf:RDF></metadata><defs
   id="defs74" /><sodipodi:namedview
   pagecolor="#ffffff"
   bordercolor="#666666"
   borderopacity="1"
   objecttolerance="10"
   gridtolerance="10"
   guidetolerance="10"
   inkscape:pageopacity="0"
   inkscape:pageshadow="2"
   inkscape:window-width="1024"
   inkscape:window-height="544"
   id="namedview72"
   showgrid="false"
   inkscape:zoom="0.4609375"
   inkscape:cx="-2.1694915"
   inkscape:cy="256"
   inkscape:window-x="0"
   inkscape:window-y="27"
   inkscape:window-maximized="1"
   inkscape:current-layer="Layer_1" />

<path
   d="m 429.26078,416.88767 c -92.07706,92.14978 -241.99487,92.14978 -334.147602,0 -92.1509038,-92.1516 -92.1509038,-242.06939 0,-334.182244 24.385392,-24.344481 54.113452,-42.921744 88.303562,-55.035825 10.77027,-3.769736 22.69436,-1.037516 30.69173,7.000391 8.07863,8.076683 10.80905,19.99877 7.00234,30.691363 -23.15402,65.305665 -7.38447,135.994555 41.07432,184.456425 48.38495,48.41942 119.07655,64.15186 184.4587,41.07566 10.69273,-3.80666 22.65374,-1.07628 30.69175,7.0004 8.07861,7.99912 10.77026,19.95999 6.96171,30.69136 -12.03854,34.18969 -30.65296,63.91738 -55.03651,88.30247 z M 136.88162,124.47337 c -69.115005,69.11416 -69.115005,181.57097 0,250.64637 73.84478,73.88263 199.61165,67.22931 263.99506,-15.07708 -66.38461,4.15371 -131.76675,-19.80676 -180.45816,-68.46064 -48.6914,-48.65203 -72.6134,-114.03521 -68.46149,-180.41717 -5.30576,4.15557 -10.34565,8.57882 -15.07541,13.30852 z"
   id="path70"
   inkscape:connector-curvature="0"
   style="fill:#1d1d1b" />
</svg>